<?xml version="1.0" encoding="utf-8"?>
<!-- Generator: Adobe Illustrator 17.0.0, SVG Export Plug-In . SVG Version: 6.00 Build 0)  -->
<!DOCTYPE svg PUBLIC "-//W3C//DTD SVG 1.1//EN" "http://www.w3.org/Graphics/SVG/1.1/DTD/svg11.dtd">
<svg version="1.1" id="Layer_1" xmlns="http://www.w3.org/2000/svg" xmlns:xlink="http://www.w3.org/1999/xlink" x="0px" y="0px"
	 width="180px" height="225.775px" viewBox="0 0 180 225.775" enable-background="new 0 0 180 225.775" xml:space="preserve">
<g>
	<path fill="#F39EA3" d="M0,69.214c20.883-46.091,48.658-22.416,85.742-36.947c15.387-6.03,32.286-25.143,42.001-30.858
		c4.571-3.143,8.572-0.571,9.918,3.227c3.135,10.453-6.537,14.461-4.725,24.256c2.236,10.804,22.559-22.514,42.841-7.559
		c8.825,6.505,3.538,24.078-13.229,24.255c10.885-2.329,14.023-18.286,1.574-21.106c-10.922-2.474-26.103,26.449-37.236,11.5
		c-8.181-10.987,12.001-26.572,4.16-27.249c-4.16,0.106-10.739,8.707-14.806,11.969c-9.069,7.28-18.211,14.994-28.783,20.137
		c-13.466,6.553-32.31,1-49.023,4.435C24.077,48.224,12.021,53.287,4.41,62.914C2.617,65.478,1.156,67.564,0,69.214z"/>
	<path fill="#F39EA3" d="M102.379,2.746c0.106,5.367-9.635,10.604-14.174,12.916c-13.042,6.643-31.116,5.747-48.198,9.451
		c-10.228,2.217-18.47,5.594-26.462,9.135c7.325-12.687,24.177-17.452,41.268-20.476C72.154,10.702,92.727,13.249,102.379,2.746z"/>
	<path fill="#F07585" d="M140.05,46.532c-0.379,2.731-1.406,5.464-1.785,8.195c-0.993,6.272,0.54,12.782,1.5,17.637
		c2.59,13.096,5.617,23.989,6.767,37.618c1.719,20.381-5.329,39.239-19.562,45.546c-8.212,3.639-18.45,4.675-28.436,7.245
		c-14.597,3.76-29.455,7.998-40.662,15.751c-10.204,7.059-18.296,14.891-24.455,26.461c-2.844,6.929-5.687,13.861-8.531,20.79
		c-0.235-40.353,32.783-56.059,61.706-64.893c18.475-5.642,39.26-5.511,48.623-21.105c9.844-16.394,3.548-43.284,0-62.372
		c-1.107-5.955-2.471-14.18-1.421-19.532C134.783,52.832,137.882,50.244,140.05,46.532z"/>
	<path fill="#F07585" d="M158.458,59.765c-0.826,9.963-0.269,13.304,0.946,18.9c4.482,20.682,14.423,46.595,1.575,65.839
		c-2.245,3.359-4.596,7.19-8.506,8.819c5.581-8.676,10.175-22.232,7.245-37.486C156.317,98.129,147.779,76.323,158.458,59.765z"/>
	<path fill="#F07585" d="M112.145,55.355c0.209,2.204,0.42,4.41,0.63,6.614c1.574,0.21,4.496,1.12,6.07,1.33
		c1.576-2.415,1.805-5.53,3.38-7.945c1.469,0.839,2.94,1.679,4.41,2.519c-0.601,2.001-1.719,4.925-2.075,6.783
		c1.166,0.656,3.319,1.733,5.54,2.982c-0.946,1.681-1.89,3.361-2.835,5.041c-1.679-0.631-3.36-1.26-5.039-1.89
		c-2.119,6.029-10.503,14.351-20.476,12.285c-4.833-1.204-6.548-1.918-10.081-3.78c-1.26,1.366-2.521,2.731-3.78,4.095
		c-1.155-0.63-2.31-1.259-3.465-1.89c0.584-2.373,2.85-4.915,3.065-6.202c-1.26-1.995-3.026-3.362-4.286-5.356
		c1.257-1.381,3.115-4.118,5.317-4.508c1.259,1.155,2.209,3.566,3.468,4.722c1.155-1.05,2.621-3.356,3.776-4.407
		c-0.734-1.995-1.47-3.99-2.204-5.984c1.049-1.051,2.101-2.102,3.15-3.151c0.118,0.059,2.547,3.914,4.637,5.613
		c1.713-0.714,2.714-0.641,4.713-0.571c0.21-2.31,0.52-3.992,0.731-6.301C108.575,55.355,110.36,55.355,112.145,55.355z
		 M101.75,68.9c0.315,0.42,0.629,0.839,0.944,1.259c1.08,0.712,1.795,0.854,3.152,0.631c1.532-0.823,2.166-1.411,2.52-3.465
		C106.274,66.799,103.275,67.37,101.75,68.9z M113.404,67.954c-2.046,6.574-9.936,10.086-15.435,4.41
		c-0.841,0.735-1.68,1.471-2.521,2.205c0,0.106,0,0.21,0,0.316c10.359,3.913,15.326,3.52,21.106-5.67c0-0.105,0-0.21,0-0.315
		C115.505,68.585,114.455,68.269,113.404,67.954z"/>
	<path fill="#F07585" d="M43.787,61.024c0.239,4.319,0.343,4.489,0.772,7.204c0.21-0.106,5.948,0.461,6.158,0.357
		c0.315-1.785,0.629-3.571,0.946-5.357c0.104,0,3.884,1.681,5.67,2.521c-0.315,1.889-0.63,3.781-0.945,5.67
		c1.05,0.735,2.1,1.471,3.15,2.205c-3.029,11.827-16.31,19.603-31.186,14.49c-3.361-1.155-6.776-1.975-8.82-4.408
		c1.018-2.034,1.781-3.012,2.288-4.026c-1.576-1.995-3.234-4.376-4.809-6.37c0.21,0,3.57-2.1,5.04-3.151
		c1.365,1.89,2.73,3.781,4.095,5.67c0.21-0.21,0.421-0.419,0.631-0.629c1.365-1.049,2.729-2.1,4.095-3.151
		c-0.734-1.89-1.47-3.78-2.205-5.67c1.575-0.63,3.15-1.259,4.725-1.891c0.63,1.786,1.26,3.571,1.891,5.356
		c1.259-0.315,2.521-0.63,3.78-0.945c0-0.106-0.84-4.727-1.259-6.931C39.166,61.654,43.158,61.024,43.787,61.024z M34.967,75.829
		c2.092,3.043,5.763,1.81,6.3-1.259C38.681,74.569,37.572,74.527,34.967,75.829z M48.197,74.569
		c-3.433,7.79-10.414,9.79-17.853,4.397c-1.667,0.951-2.797,2-3.882,3.479c8.85,7.888,22.357-0.098,26.145-6.3
		C51.138,75.618,49.668,75.095,48.197,74.569z"/>
	<path fill="#F07585" d="M43.472,164.663c-5.031-0.904-9.057-4.097-12.6-6.614c-18.923-13.45-24.83-38.244-23.941-68.043
		c2.94,0.525,5.881,1.049,8.82,1.574c-5.172,27.999,5.401,47.466,17.326,62.373C35.734,157.274,39.541,162.807,43.472,164.663"/>
	<path fill="#F07585" d="M48.513,119.932c14.115-0.279,21.654,9.112,22.681,21.735c-3.796,2.963-7.217,6.445-12.285,8.19
		c-17.982,6.193-28.757-7.412-28.037-22.365C37.582,121.251,45.678,120.205,48.513,119.932z M37.582,130.3
		c5.805,4.326,20.36,5.952,24.162,6.643C61.868,128.49,45.011,122.014,37.582,130.3z M36.858,135.998
		c1.408,9.476,15.848,9.414,23.626,6.929C60.484,142.822,43.918,138.829,36.858,135.998z"/>
	<path fill="#F07585" d="M75.918,50.314c1.89,0.209,3.781,0.42,5.67,0.63c-3.118,11.138-2.257,25.843-3.464,37.17
		c-0.316,4.726-0.631,9.451-0.946,14.177c7.98-2.31,15.961-4.621,23.942-6.931c1.048,2.416,2.1,4.831,3.149,7.244
		c-4.515,1.784-9.031,3.571-13.546,5.356c0.841,4.934,1.681,9.871,2.521,14.805c1.889-2.205,3.78-4.409,5.67-6.615
		c7.862,3.919,13.734,11.03,18.27,18.271c-6.509,6.194-13.021,12.392-19.53,18.586c-1.26-4.621-2.521-9.241-3.78-13.862
		c-1.785,0.421-3.571,0.841-5.355,1.261c-1.89-10.395-3.781-20.792-5.67-31.188c-4.2,1.155-8.401,2.312-12.601,3.465
		c-0.104,0-0.209,0-0.315,0c-0.315-2.834-0.629-5.671-0.945-8.505c-0.105,0-0.21,0-0.316,0c-6.615,2.081-11.136,3.356-15.75,6.931
		c0.471-16.392,11.791-8.458,15.75-16.067c0.525-4.408,1.05-8.821,1.575-13.23C72.138,71.316,74.029,60.814,75.918,50.314z
		 M98.915,135.681c0.316,2.31,0.629,4.62,0.946,6.931c3.044-3.045,6.09-6.09,9.135-9.135
		C108.68,133.477,101.959,134.947,98.915,135.681z M93.56,130.956c3.989-0.734,7.98-1.469,11.97-2.204
		c-1.785-1.89-3.571-3.781-5.355-5.671C100.07,123.082,93.56,130.852,93.56,130.956z"/>
</g>
</svg>
